<svg width="24" height="24" viewBox="0 0 24 24" fill="none" xmlns="http://www.w3.org/2000/svg">
<rect x="0.000488281" width="23.9998" height="23.9998" rx="3" fill="#22211F"></rect>
<path fill-rule="evenodd" clip-rule="evenodd" d="M8.83721 5.7622C7.28725 5.7622 6.03075 7.01869 6.03075 8.56866V15.6816C6.03075 17.2315 7.28725 18.488 8.83721 18.488H15.9501C17.5001 18.488 18.7566 17.2315 18.7566 15.6816V8.56866C18.7566 7.01869 17.5001 5.7622 15.9501 5.7622H8.83721ZM4.53076 8.56866C4.53076 6.19027 6.45882 4.26221 8.83721 4.26221H15.9501C18.3285 4.26221 20.2566 6.19027 20.2566 8.56866V15.6816C20.2566 18.0599 18.3285 19.988 15.9501 19.988H8.83721C6.45882 19.988 4.53076 18.0599 4.53076 15.6816V8.56866ZM12.7308 9.85158C12.2526 9.78067 11.7642 9.86235 11.3351 10.085C10.906 10.3077 10.558 10.66 10.3407 11.0918C10.1233 11.5236 10.0477 12.013 10.1245 12.4903C10.2013 12.9676 10.4266 13.4085 10.7685 13.7503C11.1103 14.0922 11.5512 14.3175 12.0285 14.3943C12.5058 14.4711 12.9952 14.3955 13.427 14.1781C13.8588 13.9608 14.2111 13.6128 14.4338 13.1837C14.6564 12.7546 14.7381 12.2662 14.6672 11.788C14.5949 11.3002 14.3676 10.8486 14.0189 10.4999C13.6702 10.1512 13.2186 9.92391 12.7308 9.85158ZM10.6442 8.75358C11.3534 8.38561 12.1605 8.25062 12.9508 8.36781C13.757 8.48735 14.5033 8.86299 15.0795 9.43925C15.6558 10.0155 16.0314 10.7618 16.151 11.5679C16.2682 12.3582 16.1332 13.1654 15.7652 13.8745C15.3972 14.5837 14.815 15.1588 14.1014 15.518C13.3877 15.8771 12.579 16.0022 11.7902 15.8752C11.0014 15.7483 10.2727 15.3759 9.7078 14.811C9.14287 14.246 8.77045 13.5173 8.64352 12.7286C8.5166 11.9398 8.64162 11.131 9.00082 10.4174C9.36001 9.70376 9.93509 9.12155 10.6442 8.75358ZM16.672 7.09526C16.2578 7.09526 15.922 7.43105 15.922 7.84526C15.922 8.25947 16.2578 8.59525 16.672 8.59525H16.6795C17.0937 8.59525 17.4295 8.25947 17.4295 7.84526C17.4295 7.43105 17.0937 7.09526 16.6795 7.09526H16.672Z" fill="white"></path>
</svg>
