<svg width="24" height="24" viewBox="0 0 24 24" fill="none" xmlns="http://www.w3.org/2000/svg">
<rect x="0.000732422" width="23.9998" height="23.9998" rx="3.31032" fill="#22211F"></rect>
<path d="M12.5373 18.9998H9.42618V9.66642H12.5373V11.222C13.2004 10.3783 14.2061 9.87531 15.2789 9.85076C17.2083 9.86147 18.7651 11.4315 18.7595 13.3609V18.9998H15.6484V13.7498C15.524 12.8807 14.7786 12.2359 13.9007 12.2378C13.5167 12.2499 13.1542 12.418 12.897 12.7034C12.6397 12.9887 12.5098 13.3665 12.5373 13.7498V18.9998ZM7.87063 18.9998H4.75952V9.66642H7.87063V18.9998ZM6.31507 8.11087C5.45597 8.11087 4.75952 7.41442 4.75952 6.55531C4.75952 5.6962 5.45597 4.99976 6.31507 4.99976C7.17418 4.99976 7.87063 5.6962 7.87063 6.55531C7.87063 6.96787 7.70674 7.36353 7.41502 7.65526C7.12329 7.94698 6.72763 8.11087 6.31507 8.11087Z" fill="white"></path>
</svg>
