<svg xmlns="http://www.w3.org/2000/svg" fill="none" viewBox="0 0 57 72" height="72" width="57">
<g clip-path="url(#clip0_1944_18769)" opacity="0.72">
<mask height="754" width="538" y="-26" x="-446" maskUnits="userSpaceOnUse" style="mask-type:luminance" id="mask0_1944_18769">
<path fill="white" d="M-445.666 727.109H91.313V-25.676H-445.666V727.109Z"></path>
</mask>
<g mask="url(#mask0_1944_18769)">
<path fill="black" d="M40.3608 11.6719L28.5852 -0.0005032L16.8105 11.6719C20.6497 11.088 24.5819 10.7849 28.5852 10.7849C32.5904 10.7849 36.5216 11.088 40.3608 11.6719Z"></path>
<path fill="black" d="M0.570866 27.7685L0.530273 27.8079L28.5846 55.6172L56.6398 27.8079L56.6001 27.7685C48.0927 23.8181 38.6002 21.6069 28.5846 21.6069C18.5698 21.6069 9.07736 23.8181 0.570866 27.7685Z"></path>
<path fill="black" d="M9.14606 67.1402C9.14606 69.7914 7.43484 72 4.57258 72C1.71212 72 0 69.7914 0 67.1402C0 64.4899 1.71212 62.2805 4.57258 62.2805C7.43484 62.2805 9.14606 64.4899 9.14606 67.1402ZM1.5263 67.1402C1.5263 68.9563 2.42476 70.7455 4.57258 70.7455C6.7213 70.7455 7.61976 68.9563 7.61976 67.1402C7.61976 65.3242 6.7213 63.535 4.57258 63.535C2.42476 63.535 1.5263 65.3242 1.5263 67.1402Z"></path>
<path fill="black" d="M9.90723 62.5708H14.2768C15.8067 62.5708 17.0083 63.313 17.0083 64.8366C17.0083 65.7585 16.6339 66.4855 15.8158 66.8431V66.8691C16.8288 67.0935 17.426 68.3873 17.3493 69.1635C17.2086 70.5906 16.3669 71.7109 14.0378 71.7109H9.90723V62.5708ZM11.4813 66.3379H14.0504C14.8055 66.3379 15.5551 65.9651 15.5551 65.0092C15.5551 64.0873 14.9065 63.8763 14.0504 63.8763H11.4813V66.3379ZM11.4813 70.4055H14.2642C15.2213 70.4055 15.8672 69.9718 15.8672 69.0499C15.8672 68.154 15.2213 67.5504 14.2642 67.5504H11.4813V70.4055Z"></path>
</g>
<path fill="black" d="M20.4454 62.5708H22.1188L25.7749 71.7109H24.1205L23.1507 69.0472H19.6047L18.7468 71.7109H17.124L20.4454 62.5708ZM19.9637 67.8678H22.6555L21.3033 64.1454H21.2663L19.9637 67.8678Z"></path>
<path fill="black" d="M32.9463 62.5708H34.6188L38.2758 71.7109H36.6214L35.6507 69.0472H32.1056L31.2477 71.7109H29.624L32.9463 62.5708ZM32.4646 67.8678H35.1564L33.8042 64.1454H33.7672L32.4646 67.8678Z"></path>
<path fill="black" d="M26.8909 68.1262L23.4648 62.5699H25.1643L27.673 66.7886L30.1744 62.5699H31.9028L28.428 68.1262V71.7109H26.8909V68.1262Z"></path>
<mask height="754" width="538" y="-26" x="-446" maskUnits="userSpaceOnUse" style="mask-type:luminance" id="mask1_1944_18769">
<path fill="white" d="M-445.666 727.109H91.313V-25.676H-445.666V727.109Z"></path>
</mask>
<g mask="url(#mask1_1944_18769)">
<path fill="black" d="M39.3434 68.6632C39.3434 70.0715 40.3565 70.7743 41.742 70.7743C43.1628 70.7743 43.8772 70.0419 43.8772 69.239C43.8772 68.5353 43.428 68.1928 43.0536 68.0515C42.4078 67.8083 41.6121 67.6054 40.2717 67.3577C38.5316 67.0358 38.0309 65.9574 38.0309 65.0096C38.0309 63.1793 39.6592 62.413 41.3253 62.413C43.4109 62.413 44.9669 63.3635 44.9669 65.2707H43.5877C43.5101 64.0931 42.6784 63.5664 41.5679 63.5664C40.4286 63.5664 39.4914 63.9259 39.4914 64.8478C39.4914 65.7062 40.0949 65.9377 41.0051 66.1175C41.1485 66.1461 42.7343 66.4054 43.6652 66.7908C44.7468 67.2388 45.307 67.9237 45.307 69.0602C45.307 71.1078 43.6265 71.9277 41.7926 71.9277C39.3831 71.9277 37.9822 70.929 37.9443 68.6632H39.3434Z"></path>
</g>
<path fill="black" d="M46.1514 62.5708H47.6109V66.3585H51.7234V62.5708H53.2452V71.7109H51.7234V67.5585H47.6109V71.7109H46.1514V62.5708Z"></path>
<path fill="black" d="M54.5264 62.5703H56.0797V71.7104H54.5264V62.5703Z"></path>
</g>
<defs>
<clipPath id="clip0_1944_18769">
<rect fill="white" height="72" width="56.64"></rect>
</clipPath>
</defs>
</svg>
