<svg width="24" height="24" viewBox="0 0 24 24" fill="none" xmlns="http://www.w3.org/2000/svg">
<rect x="0.000488281" width="23.9998" height="23.9998" rx="3" fill="#22211F"></rect>
<path fill-rule="evenodd" clip-rule="evenodd" d="M18.4846 6.89993C18.7169 7.1725 18.8818 7.51002 18.9628 7.8784C19.1791 9.24349 19.2841 10.6284 19.2764 12.0155C19.2807 13.3819 19.1758 14.7459 18.9628 16.0906C18.8818 16.4589 18.7169 16.7965 18.4846 17.069C18.2524 17.3416 17.9611 17.5396 17.6402 17.643C16.4675 18 11.7768 18 11.7768 18C11.7768 18 7.08618 18 5.91352 17.643C5.5991 17.545 5.31218 17.3564 5.08048 17.0953C4.84879 16.8343 4.68015 16.5096 4.59086 16.1527C4.37458 14.7876 4.2696 13.4026 4.27725 12.0155C4.27127 10.6388 4.37625 9.26434 4.59086 7.90944C4.67185 7.54107 4.83679 7.20355 5.06903 6.93098C5.30126 6.6584 5.59257 6.46043 5.91352 6.35705C7.08618 6 11.7768 6 11.7768 6C11.7768 6 16.4675 6 17.6402 6.326C17.9611 6.42938 18.2524 6.62735 18.4846 6.89993ZM14.2769 12L10.2769 15V9L14.2769 12Z" fill="white"></path>
</svg>
