<svg xmlns="http://www.w3.org/2000/svg" fill="none" viewBox="0 0 150 40" height="40" width="150">
<g clip-path="url(#clip0_1981_18973)">
<path fill="black" d="M15.5202 36.763C21.4162 35.896 25.4913 31.1272 26.0983 25.9249C26.5318 26.7052 26.8786 28.1792 26.8786 29.4798C26.8786 34.0751 23.1503 37.1098 18.5549 37.1098C17.0809 37.1098 15.8671 36.8497 15.5202 36.763ZM29.3931 12.4855C29.0462 12.2254 28.0058 11.5318 27.2254 11.0116C24.3642 9.10405 22.1965 7.97688 22.1965 5.89595C22.1965 4.59538 23.237 3.64162 24.6243 3.64162C27.1387 3.64162 30.0867 5.89595 30.0867 5.89595C34.5954 9.19075 37.2832 14.3931 37.2832 19.9422C37.2832 22.1098 36.9364 23.7572 36.6763 24.5376C36.6763 22.0231 35.2023 16.3006 29.3931 12.4855ZM5.80925 30.0867C3.72832 27.052 2.60116 23.5838 2.60116 19.9422C2.60116 10.4046 9.88439 3.64162 17.948 2.68786C17.7746 2.77457 15.7803 4.07514 15.7803 7.19653C15.7803 10.0578 17.7746 12.5723 19.422 14.9133C19.8555 15.5202 20.2023 16.1272 20.7225 16.8208C22.0231 18.815 23.5838 21.4162 23.5838 24.4509C23.5838 29.9133 19.1618 34.1619 13.8728 34.1619C9.19075 34.2486 6.93642 31.6474 5.80925 30.0867ZM0 19.9422C0 30.9538 8.93064 39.8844 19.9422 39.8844C30.9538 39.8844 39.8844 30.9538 39.8844 19.9422C39.8844 8.93064 30.9538 0 19.9422 0C8.93064 0 0 8.93064 0 19.9422Z"></path>
<mask height="40" width="150" y="0" x="0" maskUnits="userSpaceOnUse" style="mask-type:luminance" id="mask0_1981_18973">
<path fill="white" d="M150 0H0V39.7977H150V0Z"></path>
</mask>
<g mask="url(#mask0_1981_18973)">
<path fill="black" d="M107.255 28.5269C107.255 29.5673 106.648 30.4344 105.347 30.4344C104.047 30.4344 103.44 29.5673 103.44 28.5269V22.1107C103.44 20.3766 102.573 18.9026 100.579 18.9026C99.1045 18.9026 98.0641 19.7696 97.2837 20.3766V28.5269C97.2837 29.5673 96.6768 30.4344 95.3762 30.4344C94.0756 30.4344 93.4687 29.5673 93.4687 28.5269V16.2147H96.7635L97.0236 17.8621C97.6305 17.3419 99.3646 15.7812 102.052 15.7812C104.48 15.7812 107.342 17.1685 107.342 20.8101V28.5269H107.255ZM70.8386 26.4459C70.8386 27.2263 71.4456 27.7465 72.1392 27.7465C73.3531 27.7465 73.6999 26.7928 74.5669 26.7928C75.3473 26.7928 75.7808 27.3997 75.7808 28.0066C75.7808 29.3072 74.2201 30.4344 71.4456 30.4344C68.3242 30.4344 66.9369 28.6136 66.9369 26.2725V18.9026H64.4224V16.128H66.9369V13.0066L70.8386 11.9662V16.2147H75.9542L75.0005 18.9893H70.8386V26.4459ZM115.145 26.4459C115.145 27.2263 115.752 27.7465 116.446 27.7465C117.659 27.7465 118.006 26.7928 118.96 26.7928C119.74 26.7928 120.174 27.3997 120.174 28.0066C120.174 29.3072 118.613 30.4344 115.839 30.4344C112.717 30.4344 111.33 28.6136 111.33 26.2725V18.9026H108.815V16.128H111.33V13.0066L115.232 11.9662V16.2147H120.347L119.394 18.9893H115.232L115.145 26.4459ZM49.249 27.0529C49.249 26.1858 49.9427 25.5789 50.723 25.5789C52.0236 25.5789 52.9773 27.3997 56.2721 27.3997C58.2664 27.3997 59.7404 26.5326 59.7404 25.0587C59.7404 23.7581 58.6999 22.9777 57.0525 22.1974C56.5323 21.9373 55.5785 21.5037 54.9716 21.2436C52.7172 20.2032 50.4629 18.7292 50.4629 15.7812C50.4629 12.9199 52.9773 10.4922 57.3993 10.4922C60.6074 10.4922 62.5149 11.3592 62.9484 11.6194L61.9947 14.4806C61.4745 14.2205 59.5669 13.5269 57.5727 13.5269C56.0987 13.5269 54.6247 14.2205 54.6247 15.6945C54.6247 17.0818 55.8386 17.6887 57.3993 18.4691C57.9195 18.7292 58.3531 18.9026 58.8733 19.1627C61.301 20.2899 63.9022 21.5905 63.9022 24.7985C63.9022 28.2668 60.6074 30.4344 56.2721 30.4344C52.2837 30.3477 49.249 28.787 49.249 27.0529ZM144.711 30.3477C139.683 30.3477 136.735 27.0529 136.735 23.0644C136.735 18.9026 139.769 15.7812 144.711 15.7812C147.573 15.7812 149.133 16.8217 149.394 16.9951L148.526 19.5095C148.266 19.3361 146.966 18.4691 145.058 18.4691C142.197 18.4691 140.723 20.55 140.723 23.0644C140.723 25.5789 142.284 27.6598 144.885 27.6598C146.879 27.6598 147.659 26.3592 148.7 26.3592C149.48 26.3592 150 26.9662 150 27.6598C150 29.0471 147.573 30.3477 144.711 30.3477ZM132.139 26.5326C131.099 26.5326 130.318 27.8332 128.411 27.8332C126.417 27.8332 124.943 26.2725 124.769 24.5384H134.654V23.6714C134.654 19.076 132.139 15.8679 127.804 15.8679C123.382 15.8679 120.868 18.9893 120.868 23.1511C120.868 26.8795 123.122 30.4344 128.324 30.4344C131.272 30.4344 133.526 29.1338 133.526 27.8332C133.526 27.0529 133.093 26.5326 132.139 26.5326ZM127.717 18.5558C130.058 18.5558 130.665 20.4633 130.665 22.024H124.683C124.683 20.2899 125.55 18.5558 127.717 18.5558ZM89.9138 26.0991V21.5037C89.9138 18.1222 87.8328 15.8679 83.3242 15.8679C80.2028 15.8679 78.0352 16.9951 77.6016 17.2552L78.7288 19.5962C78.9889 19.5095 80.8097 18.6425 82.5438 18.6425C84.9716 18.6425 86.0987 19.9431 86.0987 21.2436V21.417L83.671 21.5037C80.1161 21.6772 77.0814 22.8043 77.0814 26.0991C77.0814 28.787 79.249 30.5211 82.197 30.5211C84.7115 30.5211 86.012 29.2205 86.4456 28.787C86.5323 29.0471 86.9658 30.5211 88.7866 30.5211C89.6536 30.5211 90.1739 30.1743 90.1739 29.3939C90.1739 28.4402 89.9138 27.9199 89.9138 26.0991ZM86.012 26.7061C85.7519 26.8795 84.7115 27.7465 83.2375 27.7465C81.8502 27.7465 80.9831 26.8795 80.9831 25.7523C80.9831 24.4517 82.0236 23.8448 84.1912 23.7581L86.012 23.6714V26.7061Z"></path>
</g>
</g>
<defs>
<clipPath id="clip0_1981_18973">
<rect fill="white" height="39.7977" width="150"></rect>
</clipPath>
</defs>
</svg>
