<svg xml:space="preserve" style="enable-background:new 0 0 172 40;" viewBox="0 0 172 40" y="0px" x="0px" xmlns:xlink="http://www.w3.org/1999/xlink" xmlns="http://www.w3.org/2000/svg" id="Layer_1" version="1.1">
<path d="M27,24.2c2.8-6.1,0.8-13.3-4.8-17c2.2-2.2,4.5-4.4,7-6.6c-2.9,1.7-5.6,3.7-8.2,5.9C14.4,3,6.2,5.6,2.7,12.2
	c-2.6,4.9-1.9,10.9,1.7,15.1c-2.6,5.6-3,10.1-0.8,11.6c2.5,1.6,7.8-1.3,11-6.1c0,0-4.9,4.5-7.7,3.4c-1.7-0.6-1.7-3.2-0.3-6.9
	c5.4,3.9,12.8,3.4,17.5-1.3l0.5,0.9c5.9-0.5,23.5-1,23.5-1C48.2,27.2,36.6,28,27,24.2z M2.8,18.5c0-6.6,5.3-11.9,11.9-11.9
	c1.7,0,3.4,0.4,4.9,1.1C13.8,12.7,8.9,18.8,5.3,25.7C3.7,23.6,2.8,21.1,2.8,18.5z M14.7,30.4c-2.7,0-5.3-0.9-7.4-2.5
	c2.4-5.3,7.2-12.5,13.7-19.4c5.1,3.2,7,9.7,4.4,15.1c-2.1-0.9-4-2.2-5.7-3.7l3.6,6.7C21.2,29,18,30.4,14.7,30.4z"></path>
<polygon points="107.8,17.2 110,14.3 102.3,14.3 104.2,11.8 111.9,11.8 114.1,8.8 98.7,8.8 88.2,22.8 103.5,22.8 105.7,19.9 
	98,19.9 100.1,17.2 107.8,17.2"></polygon>
<polygon points="118.4,8.8 107.9,22.8 115.5,22.8 126.1,8.8 118.4,8.8"></polygon>
<polygon points="143.9,8.8 138.6,15.9 136.9,8.8 130.9,8.8 120.4,22.8 125.4,22.8 130.8,15.8 132.4,22.8 138.4,22.8 149,8.8 
	143.9,8.8"></polygon>
<path d="M168.9,8.8h-12.3c-2,0-3.9,0.9-5.1,2.6l-6.4,8.4c-0.2,0.3-0.4,0.7-0.4,1.1c0,1,0.8,1.9,1.9,1.9h12.3c2,0,3.9-0.9,5.2-2.6
	l1.5-2h1.8l2.2-3h-9.4l-3,4c-0.3,0.4-0.8,0.7-1.3,0.7h-2.2c-0.3,0-0.5-0.2-0.5-0.5c0,0,0,0,0,0c0-0.1,0-0.2,0.1-0.3l5-6.7
	c0.3-0.4,0.8-0.7,1.3-0.7h2.2c0.3,0,0.5,0.2,0.5,0.5c0,0,0,0,0,0c0,0.1,0,0.2-0.1,0.3l-0.8,1.1h7.6l1.4-1.8c0.6-0.8,0.5-2-0.4-2.6
	C169.7,9,169.3,8.8,168.9,8.8L168.9,8.8z"></path>
<path d="M92.4,10.7c0-1-0.8-1.9-1.9-1.9l0,0H78.3c-2,0-3.9,0.9-5.2,2.6l-6.3,8.4c-0.6,0.8-0.4,2,0.4,2.6c0.3,0.2,0.7,0.4,1.1,0.4
	h12.3c2,0,3.9-0.9,5.2-2.6l6.3-8.4C92.3,11.5,92.5,11.1,92.4,10.7z M83.9,12.6l-5,6.7c-0.3,0.4-0.8,0.7-1.3,0.7h-2.2
	c-0.3,0-0.5-0.2-0.5-0.5c0-0.1,0-0.2,0.1-0.3l5-6.7c0.3-0.4,0.8-0.7,1.3-0.7h2.2c0.3,0,0.5,0.2,0.5,0.5C84,12.4,83.9,12.5,83.9,12.6
	L83.9,12.6z"></path>
<path d="M63.5,16.2c1.5-0.3,2.8-1.2,3.7-2.4l1.5-1.9c0.6-0.8,0.5-2-0.4-2.6C68,9,67.6,8.8,67.2,8.8H51.7l-10.5,14h16.1
	c2,0,3.9-0.9,5.2-2.6l1.5-2c0.2-0.3,0.3-0.6,0.3-0.9C64.1,16.9,63.9,16.4,63.5,16.2L63.5,16.2z M56.4,18l-1,1.3
	c-0.3,0.4-0.8,0.7-1.3,0.7H51l2-2.7h3c0.3,0,0.5,0.2,0.5,0.5c0,0,0,0,0,0C56.5,17.8,56.5,17.9,56.4,18L56.4,18z M60.5,12.6l-0.8,1.1
	c-0.3,0.4-0.8,0.7-1.3,0.7h-3.1l1.9-2.5h3c0.3,0,0.5,0.2,0.5,0.5v0C60.6,12.4,60.6,12.5,60.5,12.6z"></path>
</svg>
